<mxfile host="app.diagrams.net" modified="2021-02-01T09:50:08.541Z" agent="5.0 (Windows NT 10.0; Win64; x64) AppleWebKit/537.36 (KHTML, like Gecko) Chrome/87.0.4280.141 Safari/537.36" etag="pbYx2PzzZfbMoMcgm_c1" version="14.2.6" type="github" pages="7">
  <diagram id="zBc5cqGLjgYpfbMbp463" name="千佛山平台">
    <mxGraphModel dx="1038" dy="580" grid="1" gridSize="10" guides="1" tooltips="1" connect="1" arrows="1" fold="1" page="1" pageScale="1" pageWidth="827" pageHeight="1169" math="0" shadow="0">
      <root>
        <mxCell id="0" />
        <mxCell id="1" parent="0" />
        <mxCell id="_oQxTtXeKMSjnUd1fh_--26" value="" style="rounded=0;whiteSpace=wrap;html=1;fillColor=#f8cecc;strokeColor=#b85450;" parent="1" vertex="1">
          <mxGeometry x="410" y="490" width="180" height="210" as="geometry" />
        </mxCell>
        <mxCell id="2Bs4DQtAsaLHXEonET5N-2" value="" style="rounded=0;whiteSpace=wrap;html=1;fillColor=#fff2cc;strokeColor=#d6b656;" parent="1" vertex="1">
          <mxGeometry x="40" y="80" width="380" height="540" as="geometry" />
        </mxCell>
        <mxCell id="2Bs4DQtAsaLHXEonET5N-1" value="创建团队（数据）" style="rounded=0;whiteSpace=wrap;html=1;" parent="1" vertex="1">
          <mxGeometry x="60" y="410" width="120" height="40" as="geometry" />
        </mxCell>
        <mxCell id="_oQxTtXeKMSjnUd1fh_--1" value="资源目录表（废弃）" style="rounded=0;whiteSpace=wrap;html=1;" parent="1" vertex="1">
          <mxGeometry x="60" y="480" width="120" height="40" as="geometry" />
        </mxCell>
        <mxCell id="3npEivbag3i_EGVn22_l-4" style="edgeStyle=orthogonalEdgeStyle;rounded=0;orthogonalLoop=1;jettySize=auto;html=1;exitX=1;exitY=0.5;exitDx=0;exitDy=0;" parent="1" source="_oQxTtXeKMSjnUd1fh_--2" target="3npEivbag3i_EGVn22_l-3" edge="1">
          <mxGeometry relative="1" as="geometry" />
        </mxCell>
        <mxCell id="_oQxTtXeKMSjnUd1fh_--2" value="选择团队进平台" style="rounded=0;whiteSpace=wrap;html=1;" parent="1" vertex="1">
          <mxGeometry x="254" y="390" width="120" height="40" as="geometry" />
        </mxCell>
        <mxCell id="_oQxTtXeKMSjnUd1fh_--13" style="edgeStyle=orthogonalEdgeStyle;rounded=0;orthogonalLoop=1;jettySize=auto;html=1;exitX=0.5;exitY=1;exitDx=0;exitDy=0;" parent="1" source="_oQxTtXeKMSjnUd1fh_--3" target="_oQxTtXeKMSjnUd1fh_--2" edge="1">
          <mxGeometry relative="1" as="geometry" />
        </mxCell>
        <mxCell id="_oQxTtXeKMSjnUd1fh_--3" value="登录" style="rounded=0;whiteSpace=wrap;html=1;" parent="1" vertex="1">
          <mxGeometry x="254" y="320" width="120" height="40" as="geometry" />
        </mxCell>
        <mxCell id="_oQxTtXeKMSjnUd1fh_--4" value="菜单权限表" style="rounded=0;whiteSpace=wrap;html=1;" parent="1" vertex="1">
          <mxGeometry x="294" y="110" width="120" height="40" as="geometry" />
        </mxCell>
        <mxCell id="_oQxTtXeKMSjnUd1fh_--11" style="edgeStyle=orthogonalEdgeStyle;rounded=0;orthogonalLoop=1;jettySize=auto;html=1;exitX=1;exitY=0.5;exitDx=0;exitDy=0;" parent="1" source="_oQxTtXeKMSjnUd1fh_--5" target="_oQxTtXeKMSjnUd1fh_--7" edge="1">
          <mxGeometry relative="1" as="geometry" />
        </mxCell>
        <mxCell id="_oQxTtXeKMSjnUd1fh_--12" style="edgeStyle=orthogonalEdgeStyle;rounded=0;orthogonalLoop=1;jettySize=auto;html=1;exitX=1;exitY=0.75;exitDx=0;exitDy=0;" parent="1" source="_oQxTtXeKMSjnUd1fh_--5" target="_oQxTtXeKMSjnUd1fh_--3" edge="1">
          <mxGeometry relative="1" as="geometry" />
        </mxCell>
        <mxCell id="_oQxTtXeKMSjnUd1fh_--14" style="edgeStyle=orthogonalEdgeStyle;rounded=0;orthogonalLoop=1;jettySize=auto;html=1;exitX=0.5;exitY=1;exitDx=0;exitDy=0;" parent="1" source="_oQxTtXeKMSjnUd1fh_--5" target="2Bs4DQtAsaLHXEonET5N-1" edge="1">
          <mxGeometry relative="1" as="geometry" />
        </mxCell>
        <mxCell id="_oQxTtXeKMSjnUd1fh_--5" value="创建用户zqb" style="rounded=0;whiteSpace=wrap;html=1;" parent="1" vertex="1">
          <mxGeometry x="50" y="300" width="140" height="50" as="geometry" />
        </mxCell>
        <mxCell id="_oQxTtXeKMSjnUd1fh_--6" value="功能权限表" style="rounded=0;whiteSpace=wrap;html=1;" parent="1" vertex="1">
          <mxGeometry x="294" y="160" width="120" height="40" as="geometry" />
        </mxCell>
        <mxCell id="_oQxTtXeKMSjnUd1fh_--8" style="edgeStyle=orthogonalEdgeStyle;rounded=0;orthogonalLoop=1;jettySize=auto;html=1;exitX=1;exitY=0.5;exitDx=0;exitDy=0;entryX=0;entryY=0.5;entryDx=0;entryDy=0;" parent="1" source="_oQxTtXeKMSjnUd1fh_--7" target="_oQxTtXeKMSjnUd1fh_--4" edge="1">
          <mxGeometry relative="1" as="geometry" />
        </mxCell>
        <mxCell id="_oQxTtXeKMSjnUd1fh_--9" style="edgeStyle=orthogonalEdgeStyle;rounded=0;orthogonalLoop=1;jettySize=auto;html=1;exitX=1;exitY=0.5;exitDx=0;exitDy=0;" parent="1" source="_oQxTtXeKMSjnUd1fh_--7" target="_oQxTtXeKMSjnUd1fh_--6" edge="1">
          <mxGeometry relative="1" as="geometry" />
        </mxCell>
        <mxCell id="_oQxTtXeKMSjnUd1fh_--7" value="创建角色（权限）" style="rounded=0;whiteSpace=wrap;html=1;" parent="1" vertex="1">
          <mxGeometry x="170" y="130" width="84" height="40" as="geometry" />
        </mxCell>
        <mxCell id="_oQxTtXeKMSjnUd1fh_--15" value="工具配置（是否使用）" style="rounded=0;whiteSpace=wrap;html=1;" parent="1" vertex="1">
          <mxGeometry x="60" y="545" width="150" height="40" as="geometry" />
        </mxCell>
        <mxCell id="3npEivbag3i_EGVn22_l-1" style="edgeStyle=orthogonalEdgeStyle;rounded=0;orthogonalLoop=1;jettySize=auto;html=1;exitX=1;exitY=0.5;exitDx=0;exitDy=0;entryX=0;entryY=0.5;entryDx=0;entryDy=0;" parent="1" source="_oQxTtXeKMSjnUd1fh_--17" target="_oQxTtXeKMSjnUd1fh_--23" edge="1">
          <mxGeometry relative="1" as="geometry" />
        </mxCell>
        <mxCell id="_oQxTtXeKMSjnUd1fh_--17" value="数据报告配置" style="rounded=0;whiteSpace=wrap;html=1;" parent="1" vertex="1">
          <mxGeometry x="240" y="545" width="120" height="40" as="geometry" />
        </mxCell>
        <mxCell id="_oQxTtXeKMSjnUd1fh_--20" value="可视化（8个基础）" style="rounded=0;whiteSpace=wrap;html=1;" parent="1" vertex="1">
          <mxGeometry x="430" y="545" width="120" height="20" as="geometry" />
        </mxCell>
        <mxCell id="_oQxTtXeKMSjnUd1fh_--21" value="字段匹配（校验数据结构）" style="rounded=0;whiteSpace=wrap;html=1;" parent="1" vertex="1">
          <mxGeometry x="430" y="510" width="150" height="20" as="geometry" />
        </mxCell>
        <mxCell id="_oQxTtXeKMSjnUd1fh_--22" value="表间关系（匹配率）" style="rounded=0;whiteSpace=wrap;html=1;" parent="1" vertex="1">
          <mxGeometry x="430" y="640" width="120" height="20" as="geometry" />
        </mxCell>
        <mxCell id="_oQxTtXeKMSjnUd1fh_--23" value="频数统计" style="rounded=0;whiteSpace=wrap;html=1;" parent="1" vertex="1">
          <mxGeometry x="430" y="574.5" width="120" height="20" as="geometry" />
        </mxCell>
        <mxCell id="_oQxTtXeKMSjnUd1fh_--24" value="缺失率" style="rounded=0;whiteSpace=wrap;html=1;" parent="1" vertex="1">
          <mxGeometry x="430" y="610" width="120" height="20" as="geometry" />
        </mxCell>
        <mxCell id="3npEivbag3i_EGVn22_l-2" value="系统配置()跟团队没有关系" style="text;html=1;align=center;verticalAlign=middle;resizable=0;points=[];autosize=1;" parent="1" vertex="1">
          <mxGeometry x="40" y="60" width="160" height="20" as="geometry" />
        </mxCell>
        <mxCell id="3npEivbag3i_EGVn22_l-8" style="edgeStyle=orthogonalEdgeStyle;rounded=0;orthogonalLoop=1;jettySize=auto;html=1;exitX=1;exitY=0.5;exitDx=0;exitDy=0;entryX=0;entryY=0.5;entryDx=0;entryDy=0;" parent="1" source="3npEivbag3i_EGVn22_l-3" target="3npEivbag3i_EGVn22_l-6" edge="1">
          <mxGeometry relative="1" as="geometry" />
        </mxCell>
        <mxCell id="3npEivbag3i_EGVn22_l-9" style="edgeStyle=orthogonalEdgeStyle;rounded=0;orthogonalLoop=1;jettySize=auto;html=1;exitX=1;exitY=0.5;exitDx=0;exitDy=0;" parent="1" source="3npEivbag3i_EGVn22_l-3" target="3npEivbag3i_EGVn22_l-5" edge="1">
          <mxGeometry relative="1" as="geometry" />
        </mxCell>
        <mxCell id="3npEivbag3i_EGVn22_l-10" style="edgeStyle=orthogonalEdgeStyle;rounded=0;orthogonalLoop=1;jettySize=auto;html=1;exitX=1;exitY=0.5;exitDx=0;exitDy=0;entryX=0;entryY=0.5;entryDx=0;entryDy=0;" parent="1" source="3npEivbag3i_EGVn22_l-3" target="3npEivbag3i_EGVn22_l-7" edge="1">
          <mxGeometry relative="1" as="geometry" />
        </mxCell>
        <mxCell id="3npEivbag3i_EGVn22_l-15" style="edgeStyle=orthogonalEdgeStyle;rounded=0;orthogonalLoop=1;jettySize=auto;html=1;exitX=0.5;exitY=0;exitDx=0;exitDy=0;" parent="1" source="3npEivbag3i_EGVn22_l-3" target="3npEivbag3i_EGVn22_l-12" edge="1">
          <mxGeometry relative="1" as="geometry" />
        </mxCell>
        <mxCell id="3npEivbag3i_EGVn22_l-3" value="创建团队库" style="rounded=0;whiteSpace=wrap;html=1;" parent="1" vertex="1">
          <mxGeometry x="445" y="380" width="120" height="60" as="geometry" />
        </mxCell>
        <mxCell id="3npEivbag3i_EGVn22_l-5" value="2:第一步身份证的\选表名字段" style="rounded=0;whiteSpace=wrap;html=1;" parent="1" vertex="1">
          <mxGeometry x="620" y="380" width="180" height="30" as="geometry" />
        </mxCell>
        <mxCell id="3npEivbag3i_EGVn22_l-6" value="1:取符合条件的身份证号" style="rounded=0;whiteSpace=wrap;html=1;" parent="1" vertex="1">
          <mxGeometry x="620" y="340" width="150" height="30" as="geometry" />
        </mxCell>
        <mxCell id="3npEivbag3i_EGVn22_l-7" value="3:选几个抽几个表" style="rounded=0;whiteSpace=wrap;html=1;" parent="1" vertex="1">
          <mxGeometry x="620" y="415" width="150" height="30" as="geometry" />
        </mxCell>
        <mxCell id="3npEivbag3i_EGVn22_l-11" value="数据统计(人数人次)" style="rounded=0;whiteSpace=wrap;html=1;" parent="1" vertex="1">
          <mxGeometry x="430" y="670" width="120" height="20" as="geometry" />
        </mxCell>
        <mxCell id="3npEivbag3i_EGVn22_l-14" style="edgeStyle=orthogonalEdgeStyle;rounded=0;orthogonalLoop=1;jettySize=auto;html=1;exitX=1;exitY=0.5;exitDx=0;exitDy=0;" parent="1" source="3npEivbag3i_EGVn22_l-12" target="3npEivbag3i_EGVn22_l-13" edge="1">
          <mxGeometry relative="1" as="geometry" />
        </mxCell>
        <mxCell id="3npEivbag3i_EGVn22_l-12" value="治理&amp;nbsp;" style="rounded=0;whiteSpace=wrap;html=1;" parent="1" vertex="1">
          <mxGeometry x="445" y="120" width="120" height="30" as="geometry" />
        </mxCell>
        <mxCell id="3npEivbag3i_EGVn22_l-19" style="edgeStyle=orthogonalEdgeStyle;rounded=0;orthogonalLoop=1;jettySize=auto;html=1;exitX=1;exitY=0.5;exitDx=0;exitDy=0;entryX=0;entryY=0.75;entryDx=0;entryDy=0;" parent="1" source="3npEivbag3i_EGVn22_l-13" target="3npEivbag3i_EGVn22_l-16" edge="1">
          <mxGeometry relative="1" as="geometry" />
        </mxCell>
        <mxCell id="3npEivbag3i_EGVn22_l-20" style="edgeStyle=orthogonalEdgeStyle;rounded=0;orthogonalLoop=1;jettySize=auto;html=1;exitX=1;exitY=0.5;exitDx=0;exitDy=0;" parent="1" source="3npEivbag3i_EGVn22_l-13" target="3npEivbag3i_EGVn22_l-18" edge="1">
          <mxGeometry relative="1" as="geometry" />
        </mxCell>
        <mxCell id="3npEivbag3i_EGVn22_l-13" value="自定义对照" style="rounded=0;whiteSpace=wrap;html=1;" parent="1" vertex="1">
          <mxGeometry x="630" y="120" width="80" height="30" as="geometry" />
        </mxCell>
        <mxCell id="3npEivbag3i_EGVn22_l-16" value="新增列" style="rounded=0;whiteSpace=wrap;html=1;" parent="1" vertex="1">
          <mxGeometry x="780" y="100" width="80" height="30" as="geometry" />
        </mxCell>
        <mxCell id="3npEivbag3i_EGVn22_l-18" value="选择列" style="rounded=0;whiteSpace=wrap;html=1;" parent="1" vertex="1">
          <mxGeometry x="780" y="150" width="80" height="30" as="geometry" />
        </mxCell>
      </root>
    </mxGraphModel>
  </diagram>
  <diagram id="bs20py8QtAPr3H4C4hBo" name="原理:指标库">
    <mxGraphModel dx="1038" dy="580" grid="1" gridSize="10" guides="1" tooltips="1" connect="1" arrows="1" fold="1" page="1" pageScale="1" pageWidth="827" pageHeight="1169" math="0" shadow="0">
      <root>
        <mxCell id="CrCHWEmCzbZAmSGwmPkx-0" />
        <mxCell id="CrCHWEmCzbZAmSGwmPkx-1" parent="CrCHWEmCzbZAmSGwmPkx-0" />
        <mxCell id="SyBrpo2YFypFLBn_Bv9m-2" style="edgeStyle=orthogonalEdgeStyle;rounded=0;orthogonalLoop=1;jettySize=auto;html=1;exitX=1;exitY=0.5;exitDx=0;exitDy=0;" parent="CrCHWEmCzbZAmSGwmPkx-1" source="SyBrpo2YFypFLBn_Bv9m-0" target="SyBrpo2YFypFLBn_Bv9m-1" edge="1">
          <mxGeometry relative="1" as="geometry" />
        </mxCell>
        <mxCell id="SyBrpo2YFypFLBn_Bv9m-0" value="数据库\表\" style="rounded=0;whiteSpace=wrap;html=1;" parent="CrCHWEmCzbZAmSGwmPkx-1" vertex="1">
          <mxGeometry x="110" y="130" width="120" height="40" as="geometry" />
        </mxCell>
        <mxCell id="SyBrpo2YFypFLBn_Bv9m-5" style="edgeStyle=orthogonalEdgeStyle;rounded=0;orthogonalLoop=1;jettySize=auto;html=1;exitX=0.5;exitY=0;exitDx=0;exitDy=0;entryX=0;entryY=0.5;entryDx=0;entryDy=0;" parent="CrCHWEmCzbZAmSGwmPkx-1" source="SyBrpo2YFypFLBn_Bv9m-1" target="SyBrpo2YFypFLBn_Bv9m-4" edge="1">
          <mxGeometry relative="1" as="geometry" />
        </mxCell>
        <mxCell id="SyBrpo2YFypFLBn_Bv9m-1" value="指标表" style="rounded=0;whiteSpace=wrap;html=1;" parent="CrCHWEmCzbZAmSGwmPkx-1" vertex="1">
          <mxGeometry x="360" y="130" width="90" height="40" as="geometry" />
        </mxCell>
        <mxCell id="SyBrpo2YFypFLBn_Bv9m-14" style="edgeStyle=orthogonalEdgeStyle;rounded=0;orthogonalLoop=1;jettySize=auto;html=1;exitX=0;exitY=0.5;exitDx=0;exitDy=0;" parent="CrCHWEmCzbZAmSGwmPkx-1" source="SyBrpo2YFypFLBn_Bv9m-3" target="SyBrpo2YFypFLBn_Bv9m-1" edge="1">
          <mxGeometry relative="1" as="geometry" />
        </mxCell>
        <mxCell id="SyBrpo2YFypFLBn_Bv9m-3" value="分类" style="rounded=0;whiteSpace=wrap;html=1;" parent="CrCHWEmCzbZAmSGwmPkx-1" vertex="1">
          <mxGeometry x="630" y="130" width="90" height="40" as="geometry" />
        </mxCell>
        <mxCell id="SyBrpo2YFypFLBn_Bv9m-6" style="edgeStyle=orthogonalEdgeStyle;rounded=0;orthogonalLoop=1;jettySize=auto;html=1;exitX=1;exitY=0.5;exitDx=0;exitDy=0;entryX=0.5;entryY=0;entryDx=0;entryDy=0;" parent="CrCHWEmCzbZAmSGwmPkx-1" source="SyBrpo2YFypFLBn_Bv9m-4" target="SyBrpo2YFypFLBn_Bv9m-3" edge="1">
          <mxGeometry relative="1" as="geometry" />
        </mxCell>
        <mxCell id="SyBrpo2YFypFLBn_Bv9m-4" value="分类关系表" style="rounded=0;whiteSpace=wrap;html=1;" parent="CrCHWEmCzbZAmSGwmPkx-1" vertex="1">
          <mxGeometry x="480" y="50" width="120" height="40" as="geometry" />
        </mxCell>
        <mxCell id="BheeE-URCaRGMnjHFMfg-3" style="edgeStyle=orthogonalEdgeStyle;rounded=0;orthogonalLoop=1;jettySize=auto;html=1;exitX=1;exitY=0.5;exitDx=0;exitDy=0;fontSize=13;" edge="1" parent="CrCHWEmCzbZAmSGwmPkx-1" source="BheeE-URCaRGMnjHFMfg-0" target="BheeE-URCaRGMnjHFMfg-1">
          <mxGeometry relative="1" as="geometry" />
        </mxCell>
        <mxCell id="BheeE-URCaRGMnjHFMfg-4" style="edgeStyle=orthogonalEdgeStyle;rounded=0;orthogonalLoop=1;jettySize=auto;html=1;exitX=1;exitY=0.5;exitDx=0;exitDy=0;fontSize=13;" edge="1" parent="CrCHWEmCzbZAmSGwmPkx-1" source="BheeE-URCaRGMnjHFMfg-0" target="BheeE-URCaRGMnjHFMfg-2">
          <mxGeometry relative="1" as="geometry" />
        </mxCell>
        <mxCell id="BheeE-URCaRGMnjHFMfg-0" value="数据库\表\" style="rounded=0;whiteSpace=wrap;html=1;" vertex="1" parent="CrCHWEmCzbZAmSGwmPkx-1">
          <mxGeometry x="110" y="320" width="120" height="40" as="geometry" />
        </mxCell>
        <mxCell id="BheeE-URCaRGMnjHFMfg-1" value="值为指标" style="rounded=0;whiteSpace=wrap;html=1;" vertex="1" parent="CrCHWEmCzbZAmSGwmPkx-1">
          <mxGeometry x="280" y="280" width="90" height="40" as="geometry" />
        </mxCell>
        <mxCell id="BheeE-URCaRGMnjHFMfg-2" value="字段为指标" style="rounded=0;whiteSpace=wrap;html=1;" vertex="1" parent="CrCHWEmCzbZAmSGwmPkx-1">
          <mxGeometry x="280" y="350" width="90" height="40" as="geometry" />
        </mxCell>
      </root>
    </mxGraphModel>
  </diagram>
  <diagram id="s25FL8MLCjjw3JKhXkl4" name="原理:对照">
    <mxGraphModel dx="1038" dy="580" grid="1" gridSize="10" guides="1" tooltips="1" connect="1" arrows="1" fold="1" page="1" pageScale="1" pageWidth="827" pageHeight="1169" math="0" shadow="0">
      <root>
        <mxCell id="4MJmYBQ5pWx_rQNpdGQn-0" />
        <mxCell id="4MJmYBQ5pWx_rQNpdGQn-1" parent="4MJmYBQ5pWx_rQNpdGQn-0" />
        <mxCell id="4MJmYBQ5pWx_rQNpdGQn-21" style="edgeStyle=orthogonalEdgeStyle;rounded=0;orthogonalLoop=1;jettySize=auto;html=1;exitX=0.5;exitY=1;exitDx=0;exitDy=0;entryX=0.5;entryY=0;entryDx=0;entryDy=0;" parent="4MJmYBQ5pWx_rQNpdGQn-1" source="4MJmYBQ5pWx_rQNpdGQn-2" target="4MJmYBQ5pWx_rQNpdGQn-20" edge="1">
          <mxGeometry relative="1" as="geometry" />
        </mxCell>
        <mxCell id="4MJmYBQ5pWx_rQNpdGQn-2" value="待处理数据选择两个列" style="rounded=0;whiteSpace=wrap;html=1;" parent="4MJmYBQ5pWx_rQNpdGQn-1" vertex="1">
          <mxGeometry x="115" y="60" width="220" height="40" as="geometry" />
        </mxCell>
        <mxCell id="4MJmYBQ5pWx_rQNpdGQn-3" value="存储过程：&lt;br&gt;1在原始表加三列（column_new、flag）&lt;br&gt;2自动字符匹配" style="rounded=0;whiteSpace=wrap;html=1;" parent="4MJmYBQ5pWx_rQNpdGQn-1" vertex="1">
          <mxGeometry x="414" y="270" width="306" height="60" as="geometry" />
        </mxCell>
        <mxCell id="4MJmYBQ5pWx_rQNpdGQn-7" style="edgeStyle=orthogonalEdgeStyle;rounded=0;orthogonalLoop=1;jettySize=auto;html=1;exitX=0.5;exitY=1;exitDx=0;exitDy=0;" parent="4MJmYBQ5pWx_rQNpdGQn-1" source="4MJmYBQ5pWx_rQNpdGQn-4" target="4MJmYBQ5pWx_rQNpdGQn-6" edge="1">
          <mxGeometry relative="1" as="geometry" />
        </mxCell>
        <mxCell id="4MJmYBQ5pWx_rQNpdGQn-8" style="edgeStyle=orthogonalEdgeStyle;rounded=0;orthogonalLoop=1;jettySize=auto;html=1;exitX=1;exitY=0.5;exitDx=0;exitDy=0;entryX=0;entryY=0.5;entryDx=0;entryDy=0;" parent="4MJmYBQ5pWx_rQNpdGQn-1" source="4MJmYBQ5pWx_rQNpdGQn-4" target="4MJmYBQ5pWx_rQNpdGQn-3" edge="1">
          <mxGeometry relative="1" as="geometry" />
        </mxCell>
        <mxCell id="4MJmYBQ5pWx_rQNpdGQn-4" value="创建任务（任务类型）：&lt;br&gt;存储任务表和选择的列" style="rounded=0;whiteSpace=wrap;html=1;" parent="4MJmYBQ5pWx_rQNpdGQn-1" vertex="1">
          <mxGeometry x="115" y="270" width="220" height="60" as="geometry" />
        </mxCell>
        <mxCell id="4MJmYBQ5pWx_rQNpdGQn-10" style="edgeStyle=orthogonalEdgeStyle;rounded=0;orthogonalLoop=1;jettySize=auto;html=1;exitX=1;exitY=0.5;exitDx=0;exitDy=0;" parent="4MJmYBQ5pWx_rQNpdGQn-1" source="4MJmYBQ5pWx_rQNpdGQn-6" target="4MJmYBQ5pWx_rQNpdGQn-9" edge="1">
          <mxGeometry relative="1" as="geometry" />
        </mxCell>
        <mxCell id="4MJmYBQ5pWx_rQNpdGQn-14" style="edgeStyle=orthogonalEdgeStyle;rounded=0;orthogonalLoop=1;jettySize=auto;html=1;exitX=0.5;exitY=1;exitDx=0;exitDy=0;" parent="4MJmYBQ5pWx_rQNpdGQn-1" source="4MJmYBQ5pWx_rQNpdGQn-6" target="4MJmYBQ5pWx_rQNpdGQn-13" edge="1">
          <mxGeometry relative="1" as="geometry" />
        </mxCell>
        <mxCell id="4MJmYBQ5pWx_rQNpdGQn-6" value="创建任务：存储任务表和选择的列&lt;br&gt;" style="rounded=0;whiteSpace=wrap;html=1;" parent="4MJmYBQ5pWx_rQNpdGQn-1" vertex="1">
          <mxGeometry x="115" y="390" width="220" height="50" as="geometry" />
        </mxCell>
        <mxCell id="4MJmYBQ5pWx_rQNpdGQn-9" value="（用分页分配任务、userid、任务ID）" style="rounded=0;whiteSpace=wrap;html=1;" parent="4MJmYBQ5pWx_rQNpdGQn-1" vertex="1">
          <mxGeometry x="409" y="395" width="220" height="40" as="geometry" />
        </mxCell>
        <mxCell id="4MJmYBQ5pWx_rQNpdGQn-16" style="edgeStyle=orthogonalEdgeStyle;rounded=0;orthogonalLoop=1;jettySize=auto;html=1;exitX=0.5;exitY=1;exitDx=0;exitDy=0;entryX=0.5;entryY=0;entryDx=0;entryDy=0;" parent="4MJmYBQ5pWx_rQNpdGQn-1" source="4MJmYBQ5pWx_rQNpdGQn-13" target="4MJmYBQ5pWx_rQNpdGQn-15" edge="1">
          <mxGeometry relative="1" as="geometry" />
        </mxCell>
        <mxCell id="4MJmYBQ5pWx_rQNpdGQn-13" value="任务详情表（两列原始去重、俩空列、任务id）" style="rounded=0;whiteSpace=wrap;html=1;" parent="4MJmYBQ5pWx_rQNpdGQn-1" vertex="1">
          <mxGeometry x="90" y="490" width="270" height="40" as="geometry" />
        </mxCell>
        <mxCell id="4MJmYBQ5pWx_rQNpdGQn-18" style="edgeStyle=orthogonalEdgeStyle;rounded=0;orthogonalLoop=1;jettySize=auto;html=1;exitX=1;exitY=0.5;exitDx=0;exitDy=0;" parent="4MJmYBQ5pWx_rQNpdGQn-1" source="4MJmYBQ5pWx_rQNpdGQn-15" target="4MJmYBQ5pWx_rQNpdGQn-17" edge="1">
          <mxGeometry relative="1" as="geometry" />
        </mxCell>
        <mxCell id="4MJmYBQ5pWx_rQNpdGQn-15" value="手动修改两列" style="rounded=0;whiteSpace=wrap;html=1;" parent="4MJmYBQ5pWx_rQNpdGQn-1" vertex="1">
          <mxGeometry x="115" y="580" width="220" height="50" as="geometry" />
        </mxCell>
        <mxCell id="4MJmYBQ5pWx_rQNpdGQn-19" style="edgeStyle=orthogonalEdgeStyle;rounded=0;orthogonalLoop=1;jettySize=auto;html=1;exitX=1;exitY=0.5;exitDx=0;exitDy=0;entryX=1;entryY=0.5;entryDx=0;entryDy=0;" parent="4MJmYBQ5pWx_rQNpdGQn-1" source="4MJmYBQ5pWx_rQNpdGQn-17" target="4MJmYBQ5pWx_rQNpdGQn-3" edge="1">
          <mxGeometry relative="1" as="geometry">
            <Array as="points">
              <mxPoint x="765" y="605" />
              <mxPoint x="765" y="300" />
            </Array>
          </mxGeometry>
        </mxCell>
        <mxCell id="4MJmYBQ5pWx_rQNpdGQn-17" value="提交审核" style="rounded=0;whiteSpace=wrap;html=1;" parent="4MJmYBQ5pWx_rQNpdGQn-1" vertex="1">
          <mxGeometry x="475" y="580" width="220" height="50" as="geometry" />
        </mxCell>
        <mxCell id="4MJmYBQ5pWx_rQNpdGQn-22" value="否" style="edgeStyle=orthogonalEdgeStyle;rounded=0;orthogonalLoop=1;jettySize=auto;html=1;exitX=0.5;exitY=1;exitDx=0;exitDy=0;" parent="4MJmYBQ5pWx_rQNpdGQn-1" source="4MJmYBQ5pWx_rQNpdGQn-20" target="4MJmYBQ5pWx_rQNpdGQn-4" edge="1">
          <mxGeometry relative="1" as="geometry" />
        </mxCell>
        <mxCell id="4MJmYBQ5pWx_rQNpdGQn-25" style="edgeStyle=orthogonalEdgeStyle;rounded=0;orthogonalLoop=1;jettySize=auto;html=1;exitX=0;exitY=0.5;exitDx=0;exitDy=0;entryX=0;entryY=0.5;entryDx=0;entryDy=0;" parent="4MJmYBQ5pWx_rQNpdGQn-1" source="4MJmYBQ5pWx_rQNpdGQn-20" target="4MJmYBQ5pWx_rQNpdGQn-6" edge="1">
          <mxGeometry relative="1" as="geometry">
            <Array as="points">
              <mxPoint x="50" y="180" />
              <mxPoint x="50" y="415" />
            </Array>
          </mxGeometry>
        </mxCell>
        <mxCell id="4MJmYBQ5pWx_rQNpdGQn-26" value="是" style="edgeLabel;html=1;align=center;verticalAlign=middle;resizable=0;points=[];" parent="4MJmYBQ5pWx_rQNpdGQn-25" vertex="1" connectable="0">
          <mxGeometry x="-0.1674" y="-4" relative="1" as="geometry">
            <mxPoint as="offset" />
          </mxGeometry>
        </mxCell>
        <mxCell id="4MJmYBQ5pWx_rQNpdGQn-20" value="是否列已经选过了" style="rhombus;whiteSpace=wrap;html=1;" parent="4MJmYBQ5pWx_rQNpdGQn-1" vertex="1">
          <mxGeometry x="135" y="140" width="180" height="80" as="geometry" />
        </mxCell>
      </root>
    </mxGraphModel>
  </diagram>
  <diagram id="bL-7oj4D0HFCE5A1CT--" name="原理:文本结构化">
    <mxGraphModel dx="1038" dy="580" grid="1" gridSize="10" guides="1" tooltips="1" connect="1" arrows="1" fold="1" page="1" pageScale="1" pageWidth="827" pageHeight="1169" math="0" shadow="0">
      <root>
        <mxCell id="B98Zif3zCCWWQq78czEz-0" />
        <mxCell id="B98Zif3zCCWWQq78czEz-1" parent="B98Zif3zCCWWQq78czEz-0" />
        <mxCell id="B98Zif3zCCWWQq78czEz-14" style="edgeStyle=orthogonalEdgeStyle;rounded=0;orthogonalLoop=1;jettySize=auto;html=1;exitX=0.5;exitY=1;exitDx=0;exitDy=0;" parent="B98Zif3zCCWWQq78czEz-1" source="B98Zif3zCCWWQq78czEz-2" target="B98Zif3zCCWWQq78czEz-13" edge="1">
          <mxGeometry relative="1" as="geometry" />
        </mxCell>
        <mxCell id="B98Zif3zCCWWQq78czEz-2" value="进入数据治理页面" style="rounded=0;whiteSpace=wrap;html=1;" parent="B98Zif3zCCWWQq78czEz-1" vertex="1">
          <mxGeometry x="70" y="160" width="120" height="50" as="geometry" />
        </mxCell>
        <mxCell id="B98Zif3zCCWWQq78czEz-39" style="edgeStyle=orthogonalEdgeStyle;rounded=0;orthogonalLoop=1;jettySize=auto;html=1;exitX=1;exitY=0.5;exitDx=0;exitDy=0;entryX=0;entryY=0.5;entryDx=0;entryDy=0;" parent="B98Zif3zCCWWQq78czEz-1" source="B98Zif3zCCWWQq78czEz-4" target="B98Zif3zCCWWQq78czEz-7" edge="1">
          <mxGeometry relative="1" as="geometry" />
        </mxCell>
        <mxCell id="B98Zif3zCCWWQq78czEz-4" value="批量自动处理" style="rounded=0;whiteSpace=wrap;html=1;" parent="B98Zif3zCCWWQq78czEz-1" vertex="1">
          <mxGeometry x="290" y="460" width="100" height="40" as="geometry" />
        </mxCell>
        <mxCell id="B98Zif3zCCWWQq78czEz-37" style="edgeStyle=orthogonalEdgeStyle;rounded=0;orthogonalLoop=1;jettySize=auto;html=1;exitX=0.5;exitY=1;exitDx=0;exitDy=0;entryX=0.5;entryY=0;entryDx=0;entryDy=0;" parent="B98Zif3zCCWWQq78czEz-1" source="B98Zif3zCCWWQq78czEz-5" target="B98Zif3zCCWWQq78czEz-6" edge="1">
          <mxGeometry relative="1" as="geometry" />
        </mxCell>
        <mxCell id="B98Zif3zCCWWQq78czEz-5" value="生成过程:&lt;br&gt;1:选择汇总维度(对象部位属性)&lt;br&gt;2:选择保存信息级别(有无数量程度单位&amp;nbsp; 有组合优先级)&lt;br&gt;3:指定汇总结果表名(位置)" style="rounded=0;whiteSpace=wrap;html=1;" parent="B98Zif3zCCWWQq78czEz-1" vertex="1">
          <mxGeometry x="196" y="765" width="350" height="75" as="geometry" />
        </mxCell>
        <mxCell id="B98Zif3zCCWWQq78czEz-6" value="结果宽表" style="rounded=0;whiteSpace=wrap;html=1;" parent="B98Zif3zCCWWQq78czEz-1" vertex="1">
          <mxGeometry x="296" y="890" width="150" height="40" as="geometry" />
        </mxCell>
        <mxCell id="FyqRaNX5WbiwHjj-eRyh-1" style="edgeStyle=orthogonalEdgeStyle;rounded=0;orthogonalLoop=1;jettySize=auto;html=1;exitX=0.5;exitY=1;exitDx=0;exitDy=0;" parent="B98Zif3zCCWWQq78czEz-1" source="B98Zif3zCCWWQq78czEz-7" target="B98Zif3zCCWWQq78czEz-8" edge="1">
          <mxGeometry relative="1" as="geometry" />
        </mxCell>
        <mxCell id="B98Zif3zCCWWQq78czEz-7" value="文本:&quot;一会测了体重一会又测了身高&quot;&lt;br&gt;文本:&quot;身高172cm,体重一百八公斤&quot;&lt;br&gt;&lt;br&gt;举例:症状+数量+单位&lt;br&gt;&lt;br&gt;1:把症状词和数量\单位词加载到内存&lt;br&gt;2:组合成正则规则(断句符剔除)&lt;br&gt;3:遍历文本,正则匹配&lt;br&gt;4:存储到明细表(所有任务)&lt;br&gt;" style="rounded=0;whiteSpace=wrap;html=1;" parent="B98Zif3zCCWWQq78czEz-1" vertex="1">
          <mxGeometry x="424" y="396.25" width="246" height="167.5" as="geometry" />
        </mxCell>
        <mxCell id="B98Zif3zCCWWQq78czEz-36" style="edgeStyle=orthogonalEdgeStyle;rounded=0;orthogonalLoop=1;jettySize=auto;html=1;exitX=0.5;exitY=1;exitDx=0;exitDy=0;" parent="B98Zif3zCCWWQq78czEz-1" source="B98Zif3zCCWWQq78czEz-8" target="B98Zif3zCCWWQq78czEz-5" edge="1">
          <mxGeometry relative="1" as="geometry" />
        </mxCell>
        <mxCell id="B98Zif3zCCWWQq78czEz-8" value="结果明细表:&lt;br&gt;&lt;br&gt;任务ID\&amp;nbsp; &amp;nbsp; &amp;nbsp;原数据主键(多行)\&amp;nbsp; &amp;nbsp;结果明细表&lt;br&gt;(对象部位属性有无数量程度单位)" style="rounded=0;whiteSpace=wrap;html=1;" parent="B98Zif3zCCWWQq78czEz-1" vertex="1">
          <mxGeometry x="346" y="620" width="250" height="80" as="geometry" />
        </mxCell>
        <mxCell id="B98Zif3zCCWWQq78czEz-9" value="全量显示(没有压缩相同文本)" style="rounded=0;whiteSpace=wrap;html=1;" parent="B98Zif3zCCWWQq78czEz-1" vertex="1">
          <mxGeometry x="550" y="330" width="190" height="40" as="geometry" />
        </mxCell>
        <mxCell id="B98Zif3zCCWWQq78czEz-27" style="edgeStyle=orthogonalEdgeStyle;rounded=0;orthogonalLoop=1;jettySize=auto;html=1;exitX=1;exitY=0.5;exitDx=0;exitDy=0;" parent="B98Zif3zCCWWQq78czEz-1" source="B98Zif3zCCWWQq78czEz-10" target="B98Zif3zCCWWQq78czEz-23" edge="1">
          <mxGeometry relative="1" as="geometry" />
        </mxCell>
        <mxCell id="B98Zif3zCCWWQq78czEz-10" value="实体字典表（二甲双胍）" style="rounded=0;whiteSpace=wrap;html=1;" parent="B98Zif3zCCWWQq78czEz-1" vertex="1">
          <mxGeometry x="310" y="130" width="160" height="40" as="geometry" />
        </mxCell>
        <mxCell id="B98Zif3zCCWWQq78czEz-20" style="edgeStyle=orthogonalEdgeStyle;rounded=0;orthogonalLoop=1;jettySize=auto;html=1;exitX=0.5;exitY=0;exitDx=0;exitDy=0;" parent="B98Zif3zCCWWQq78czEz-1" source="B98Zif3zCCWWQq78czEz-11" target="B98Zif3zCCWWQq78czEz-18" edge="1">
          <mxGeometry relative="1" as="geometry" />
        </mxCell>
        <mxCell id="B98Zif3zCCWWQq78czEz-29" style="edgeStyle=orthogonalEdgeStyle;rounded=0;orthogonalLoop=1;jettySize=auto;html=1;exitX=1;exitY=0.5;exitDx=0;exitDy=0;entryX=0;entryY=0.5;entryDx=0;entryDy=0;" parent="B98Zif3zCCWWQq78czEz-1" source="B98Zif3zCCWWQq78czEz-11" target="B98Zif3zCCWWQq78czEz-9" edge="1">
          <mxGeometry relative="1" as="geometry" />
        </mxCell>
        <mxCell id="B98Zif3zCCWWQq78czEz-38" style="edgeStyle=orthogonalEdgeStyle;rounded=0;orthogonalLoop=1;jettySize=auto;html=1;exitX=0.25;exitY=1;exitDx=0;exitDy=0;" parent="B98Zif3zCCWWQq78czEz-1" source="B98Zif3zCCWWQq78czEz-11" target="B98Zif3zCCWWQq78czEz-4" edge="1">
          <mxGeometry relative="1" as="geometry" />
        </mxCell>
        <mxCell id="B98Zif3zCCWWQq78czEz-11" value="任务表：&lt;br&gt;任务名称、标志位、库、表、字段、&lt;br&gt;数组（实体逻辑ID）" style="rounded=0;whiteSpace=wrap;html=1;" parent="B98Zif3zCCWWQq78czEz-1" vertex="1">
          <mxGeometry x="290" y="315" width="200" height="70" as="geometry" />
        </mxCell>
        <mxCell id="B98Zif3zCCWWQq78czEz-16" style="edgeStyle=orthogonalEdgeStyle;rounded=0;orthogonalLoop=1;jettySize=auto;html=1;exitX=1;exitY=0.5;exitDx=0;exitDy=0;" parent="B98Zif3zCCWWQq78czEz-1" source="B98Zif3zCCWWQq78czEz-12" target="B98Zif3zCCWWQq78czEz-11" edge="1">
          <mxGeometry relative="1" as="geometry" />
        </mxCell>
        <mxCell id="B98Zif3zCCWWQq78czEz-12" value="创建任务" style="rounded=0;whiteSpace=wrap;html=1;" parent="B98Zif3zCCWWQq78czEz-1" vertex="1">
          <mxGeometry x="70" y="330" width="120" height="40" as="geometry" />
        </mxCell>
        <mxCell id="B98Zif3zCCWWQq78czEz-15" style="edgeStyle=orthogonalEdgeStyle;rounded=0;orthogonalLoop=1;jettySize=auto;html=1;exitX=0.5;exitY=1;exitDx=0;exitDy=0;entryX=0.5;entryY=0;entryDx=0;entryDy=0;" parent="B98Zif3zCCWWQq78czEz-1" source="B98Zif3zCCWWQq78czEz-13" target="B98Zif3zCCWWQq78czEz-12" edge="1">
          <mxGeometry relative="1" as="geometry" />
        </mxCell>
        <mxCell id="B98Zif3zCCWWQq78czEz-13" value="数据页面：选表及字段（文本）" style="rounded=0;whiteSpace=wrap;html=1;" parent="B98Zif3zCCWWQq78czEz-1" vertex="1">
          <mxGeometry x="30" y="250" width="200" height="40" as="geometry" />
        </mxCell>
        <mxCell id="B98Zif3zCCWWQq78czEz-19" style="edgeStyle=orthogonalEdgeStyle;rounded=0;orthogonalLoop=1;jettySize=auto;html=1;exitX=0.5;exitY=0;exitDx=0;exitDy=0;entryX=0.5;entryY=1;entryDx=0;entryDy=0;" parent="B98Zif3zCCWWQq78czEz-1" source="B98Zif3zCCWWQq78czEz-18" target="B98Zif3zCCWWQq78czEz-10" edge="1">
          <mxGeometry relative="1" as="geometry" />
        </mxCell>
        <mxCell id="B98Zif3zCCWWQq78czEz-28" style="edgeStyle=orthogonalEdgeStyle;rounded=0;orthogonalLoop=1;jettySize=auto;html=1;exitX=1;exitY=0.5;exitDx=0;exitDy=0;" parent="B98Zif3zCCWWQq78czEz-1" source="B98Zif3zCCWWQq78czEz-18" target="B98Zif3zCCWWQq78czEz-24" edge="1">
          <mxGeometry relative="1" as="geometry" />
        </mxCell>
        <mxCell id="B98Zif3zCCWWQq78czEz-18" value="实体逻辑表（药品+数量）" style="rounded=0;whiteSpace=wrap;html=1;" parent="B98Zif3zCCWWQq78czEz-1" vertex="1">
          <mxGeometry x="310" y="210" width="160" height="40" as="geometry" />
        </mxCell>
        <mxCell id="B98Zif3zCCWWQq78czEz-22" value="n：n" style="edgeStyle=orthogonalEdgeStyle;rounded=0;orthogonalLoop=1;jettySize=auto;html=1;exitX=0.5;exitY=1;exitDx=0;exitDy=0;entryX=0.5;entryY=0;entryDx=0;entryDy=0;" parent="B98Zif3zCCWWQq78czEz-1" source="B98Zif3zCCWWQq78czEz-21" target="B98Zif3zCCWWQq78czEz-10" edge="1">
          <mxGeometry relative="1" as="geometry" />
        </mxCell>
        <mxCell id="B98Zif3zCCWWQq78czEz-26" style="edgeStyle=orthogonalEdgeStyle;rounded=0;orthogonalLoop=1;jettySize=auto;html=1;exitX=1;exitY=0.5;exitDx=0;exitDy=0;" parent="B98Zif3zCCWWQq78czEz-1" source="B98Zif3zCCWWQq78czEz-21" target="B98Zif3zCCWWQq78czEz-25" edge="1">
          <mxGeometry relative="1" as="geometry" />
        </mxCell>
        <mxCell id="B98Zif3zCCWWQq78czEz-21" value="实体类别表（实体分组）&lt;br&gt;药品、数量\检查" style="rounded=0;whiteSpace=wrap;html=1;" parent="B98Zif3zCCWWQq78czEz-1" vertex="1">
          <mxGeometry x="310" y="40" width="160" height="40" as="geometry" />
        </mxCell>
        <mxCell id="B98Zif3zCCWWQq78czEz-23" value="ID、名称、分组LIST" style="rounded=0;whiteSpace=wrap;html=1;" parent="B98Zif3zCCWWQq78czEz-1" vertex="1">
          <mxGeometry x="550" y="130" width="160" height="40" as="geometry" />
        </mxCell>
        <mxCell id="B98Zif3zCCWWQq78czEz-24" value="ID、分组ID，名称" style="rounded=0;whiteSpace=wrap;html=1;" parent="B98Zif3zCCWWQq78czEz-1" vertex="1">
          <mxGeometry x="550" y="210" width="160" height="40" as="geometry" />
        </mxCell>
        <mxCell id="B98Zif3zCCWWQq78czEz-25" value="分组ID、分组名称、颜色&lt;br&gt;词性类别（程度词）&amp;nbsp;" style="rounded=0;whiteSpace=wrap;html=1;" parent="B98Zif3zCCWWQq78czEz-1" vertex="1">
          <mxGeometry x="540" y="40" width="210" height="40" as="geometry" />
        </mxCell>
        <mxCell id="B98Zif3zCCWWQq78czEz-31" style="edgeStyle=orthogonalEdgeStyle;rounded=0;orthogonalLoop=1;jettySize=auto;html=1;exitX=0;exitY=0.5;exitDx=0;exitDy=0;exitPerimeter=0;entryX=0.5;entryY=1;entryDx=0;entryDy=0;" parent="B98Zif3zCCWWQq78czEz-1" source="B98Zif3zCCWWQq78czEz-30" target="B98Zif3zCCWWQq78czEz-12" edge="1">
          <mxGeometry relative="1" as="geometry" />
        </mxCell>
        <mxCell id="B98Zif3zCCWWQq78czEz-32" style="edgeStyle=orthogonalEdgeStyle;rounded=0;orthogonalLoop=1;jettySize=auto;html=1;exitX=1;exitY=0.5;exitDx=0;exitDy=0;exitPerimeter=0;" parent="B98Zif3zCCWWQq78czEz-1" source="B98Zif3zCCWWQq78czEz-30" target="B98Zif3zCCWWQq78czEz-8" edge="1">
          <mxGeometry relative="1" as="geometry" />
        </mxCell>
        <mxCell id="B98Zif3zCCWWQq78czEz-35" style="edgeStyle=orthogonalEdgeStyle;rounded=0;orthogonalLoop=1;jettySize=auto;html=1;exitX=0.5;exitY=1;exitDx=0;exitDy=0;exitPerimeter=0;" parent="B98Zif3zCCWWQq78czEz-1" source="B98Zif3zCCWWQq78czEz-30" target="B98Zif3zCCWWQq78czEz-5" edge="1">
          <mxGeometry relative="1" as="geometry" />
        </mxCell>
        <mxCell id="B98Zif3zCCWWQq78czEz-30" value="原始表" style="shape=cylinder3;whiteSpace=wrap;html=1;boundedLbl=1;backgroundOutline=1;size=15;" parent="B98Zif3zCCWWQq78czEz-1" vertex="1">
          <mxGeometry x="206" y="620" width="60" height="80" as="geometry" />
        </mxCell>
      </root>
    </mxGraphModel>
  </diagram>
  <diagram id="kAzODh1Z_Y6zAvNebipd" name="第一原理">
    <mxGraphModel dx="1038" dy="580" grid="1" gridSize="10" guides="1" tooltips="1" connect="1" arrows="1" fold="1" page="1" pageScale="1" pageWidth="827" pageHeight="1169" math="0" shadow="0">
      <root>
        <mxCell id="cu-stcGuFYGUKV47EfC6-0" />
        <mxCell id="cu-stcGuFYGUKV47EfC6-1" parent="cu-stcGuFYGUKV47EfC6-0" />
        <mxCell id="myKxCIrz0Wt8vnPAzzUw-14" style="edgeStyle=orthogonalEdgeStyle;rounded=0;orthogonalLoop=1;jettySize=auto;html=1;exitX=1;exitY=0.5;exitDx=0;exitDy=0;" parent="cu-stcGuFYGUKV47EfC6-1" source="myKxCIrz0Wt8vnPAzzUw-5" target="myKxCIrz0Wt8vnPAzzUw-10" edge="1">
          <mxGeometry relative="1" as="geometry" />
        </mxCell>
        <mxCell id="myKxCIrz0Wt8vnPAzzUw-5" value="" style="rounded=0;whiteSpace=wrap;html=1;fillColor=#fff2cc;strokeColor=#d6b656;" parent="cu-stcGuFYGUKV47EfC6-1" vertex="1">
          <mxGeometry x="229" y="180" width="351" height="80" as="geometry" />
        </mxCell>
        <mxCell id="myKxCIrz0Wt8vnPAzzUw-4" style="edgeStyle=orthogonalEdgeStyle;rounded=0;orthogonalLoop=1;jettySize=auto;html=1;exitX=1;exitY=0.5;exitDx=0;exitDy=0;entryX=0;entryY=0.5;entryDx=0;entryDy=0;" parent="cu-stcGuFYGUKV47EfC6-1" source="myKxCIrz0Wt8vnPAzzUw-0" target="myKxCIrz0Wt8vnPAzzUw-1" edge="1">
          <mxGeometry relative="1" as="geometry" />
        </mxCell>
        <mxCell id="myKxCIrz0Wt8vnPAzzUw-0" value="原始库" style="rounded=0;whiteSpace=wrap;html=1;" parent="cu-stcGuFYGUKV47EfC6-1" vertex="1">
          <mxGeometry x="40" y="200" width="90" height="40" as="geometry" />
        </mxCell>
        <mxCell id="myKxCIrz0Wt8vnPAzzUw-12" style="edgeStyle=orthogonalEdgeStyle;rounded=0;orthogonalLoop=1;jettySize=auto;html=1;exitX=1;exitY=0.5;exitDx=0;exitDy=0;" parent="cu-stcGuFYGUKV47EfC6-1" source="myKxCIrz0Wt8vnPAzzUw-1" target="myKxCIrz0Wt8vnPAzzUw-2" edge="1">
          <mxGeometry relative="1" as="geometry" />
        </mxCell>
        <mxCell id="myKxCIrz0Wt8vnPAzzUw-1" value="1:标准库" style="rounded=0;whiteSpace=wrap;html=1;" parent="cu-stcGuFYGUKV47EfC6-1" vertex="1">
          <mxGeometry x="190" y="200" width="90" height="40" as="geometry" />
        </mxCell>
        <mxCell id="myKxCIrz0Wt8vnPAzzUw-13" style="edgeStyle=orthogonalEdgeStyle;rounded=0;orthogonalLoop=1;jettySize=auto;html=1;exitX=1;exitY=0.5;exitDx=0;exitDy=0;" parent="cu-stcGuFYGUKV47EfC6-1" source="myKxCIrz0Wt8vnPAzzUw-2" target="myKxCIrz0Wt8vnPAzzUw-3" edge="1">
          <mxGeometry relative="1" as="geometry" />
        </mxCell>
        <mxCell id="myKxCIrz0Wt8vnPAzzUw-2" value="2:团队库" style="rounded=0;whiteSpace=wrap;html=1;" parent="cu-stcGuFYGUKV47EfC6-1" vertex="1">
          <mxGeometry x="360" y="200" width="90" height="40" as="geometry" />
        </mxCell>
        <mxCell id="myKxCIrz0Wt8vnPAzzUw-3" value="3:项目库" style="rounded=0;whiteSpace=wrap;html=1;" parent="cu-stcGuFYGUKV47EfC6-1" vertex="1">
          <mxGeometry x="510" y="200" width="90" height="40" as="geometry" />
        </mxCell>
        <mxCell id="myKxCIrz0Wt8vnPAzzUw-16" style="edgeStyle=orthogonalEdgeStyle;rounded=0;orthogonalLoop=1;jettySize=auto;html=1;exitX=0.5;exitY=0;exitDx=0;exitDy=0;" parent="cu-stcGuFYGUKV47EfC6-1" source="myKxCIrz0Wt8vnPAzzUw-6" target="myKxCIrz0Wt8vnPAzzUw-5" edge="1">
          <mxGeometry relative="1" as="geometry" />
        </mxCell>
        <mxCell id="myKxCIrz0Wt8vnPAzzUw-6" value="整理" style="rounded=0;whiteSpace=wrap;html=1;" parent="cu-stcGuFYGUKV47EfC6-1" vertex="1">
          <mxGeometry x="264" y="300" width="50" height="30" as="geometry" />
        </mxCell>
        <mxCell id="myKxCIrz0Wt8vnPAzzUw-17" style="edgeStyle=orthogonalEdgeStyle;rounded=0;orthogonalLoop=1;jettySize=auto;html=1;exitX=0.5;exitY=0;exitDx=0;exitDy=0;entryX=0.5;entryY=1;entryDx=0;entryDy=0;" parent="cu-stcGuFYGUKV47EfC6-1" source="myKxCIrz0Wt8vnPAzzUw-7" target="myKxCIrz0Wt8vnPAzzUw-5" edge="1">
          <mxGeometry relative="1" as="geometry" />
        </mxCell>
        <mxCell id="myKxCIrz0Wt8vnPAzzUw-7" value="分析" style="rounded=0;whiteSpace=wrap;html=1;" parent="cu-stcGuFYGUKV47EfC6-1" vertex="1">
          <mxGeometry x="348" y="300" width="50" height="30" as="geometry" />
        </mxCell>
        <mxCell id="myKxCIrz0Wt8vnPAzzUw-18" style="edgeStyle=orthogonalEdgeStyle;rounded=0;orthogonalLoop=1;jettySize=auto;html=1;exitX=0.5;exitY=0;exitDx=0;exitDy=0;" parent="cu-stcGuFYGUKV47EfC6-1" source="myKxCIrz0Wt8vnPAzzUw-8" edge="1">
          <mxGeometry relative="1" as="geometry">
            <mxPoint x="400" y="260" as="targetPoint" />
          </mxGeometry>
        </mxCell>
        <mxCell id="myKxCIrz0Wt8vnPAzzUw-8" value="结构化" style="rounded=0;whiteSpace=wrap;html=1;" parent="cu-stcGuFYGUKV47EfC6-1" vertex="1">
          <mxGeometry x="424" y="300" width="50" height="30" as="geometry" />
        </mxCell>
        <mxCell id="myKxCIrz0Wt8vnPAzzUw-10" value="分析平台" style="rounded=0;whiteSpace=wrap;html=1;" parent="cu-stcGuFYGUKV47EfC6-1" vertex="1">
          <mxGeometry x="670" y="205" width="60" height="30" as="geometry" />
        </mxCell>
        <mxCell id="myKxCIrz0Wt8vnPAzzUw-19" style="edgeStyle=orthogonalEdgeStyle;rounded=0;orthogonalLoop=1;jettySize=auto;html=1;exitX=0.5;exitY=0;exitDx=0;exitDy=0;" parent="cu-stcGuFYGUKV47EfC6-1" source="myKxCIrz0Wt8vnPAzzUw-15" edge="1">
          <mxGeometry relative="1" as="geometry">
            <mxPoint x="405" y="260" as="targetPoint" />
          </mxGeometry>
        </mxCell>
        <mxCell id="myKxCIrz0Wt8vnPAzzUw-15" value="可视化" style="rounded=0;whiteSpace=wrap;html=1;" parent="cu-stcGuFYGUKV47EfC6-1" vertex="1">
          <mxGeometry x="500" y="300" width="50" height="30" as="geometry" />
        </mxCell>
      </root>
    </mxGraphModel>
  </diagram>
  <diagram id="J38Mmww2g-eUMspTAqNe" name="流程梳理">
    <mxGraphModel dx="1038" dy="580" grid="1" gridSize="10" guides="1" tooltips="1" connect="1" arrows="1" fold="1" page="1" pageScale="1" pageWidth="827" pageHeight="1169" math="0" shadow="0">
      <root>
        <mxCell id="RMPeA_vs8Txne51qMHOB-0" />
        <mxCell id="RMPeA_vs8Txne51qMHOB-1" parent="RMPeA_vs8Txne51qMHOB-0" />
        <mxCell id="RMPeA_vs8Txne51qMHOB-39" style="edgeStyle=orthogonalEdgeStyle;rounded=0;orthogonalLoop=1;jettySize=auto;html=1;exitX=1;exitY=0.5;exitDx=0;exitDy=0;" parent="RMPeA_vs8Txne51qMHOB-1" source="RMPeA_vs8Txne51qMHOB-34" target="RMPeA_vs8Txne51qMHOB-38" edge="1">
          <mxGeometry relative="1" as="geometry" />
        </mxCell>
        <mxCell id="RMPeA_vs8Txne51qMHOB-41" style="edgeStyle=orthogonalEdgeStyle;rounded=0;orthogonalLoop=1;jettySize=auto;html=1;exitX=1;exitY=0.5;exitDx=0;exitDy=0;" parent="RMPeA_vs8Txne51qMHOB-1" source="RMPeA_vs8Txne51qMHOB-34" target="RMPeA_vs8Txne51qMHOB-40" edge="1">
          <mxGeometry relative="1" as="geometry" />
        </mxCell>
        <mxCell id="RMPeA_vs8Txne51qMHOB-34" value="" style="rounded=0;whiteSpace=wrap;html=1;fillColor=#f8cecc;strokeColor=#b85450;" parent="RMPeA_vs8Txne51qMHOB-1" vertex="1">
          <mxGeometry x="570" y="310" width="160" height="410" as="geometry" />
        </mxCell>
        <mxCell id="RMPeA_vs8Txne51qMHOB-26" style="edgeStyle=orthogonalEdgeStyle;rounded=0;orthogonalLoop=1;jettySize=auto;html=1;exitX=0;exitY=0.5;exitDx=0;exitDy=0;" parent="RMPeA_vs8Txne51qMHOB-1" source="RMPeA_vs8Txne51qMHOB-24" target="RMPeA_vs8Txne51qMHOB-25" edge="1">
          <mxGeometry relative="1" as="geometry" />
        </mxCell>
        <mxCell id="RMPeA_vs8Txne51qMHOB-24" value="" style="rounded=0;whiteSpace=wrap;html=1;fillColor=#f8cecc;strokeColor=#b85450;" parent="RMPeA_vs8Txne51qMHOB-1" vertex="1">
          <mxGeometry x="320" y="560" width="180" height="110" as="geometry" />
        </mxCell>
        <mxCell id="RMPeA_vs8Txne51qMHOB-27" style="edgeStyle=orthogonalEdgeStyle;rounded=0;orthogonalLoop=1;jettySize=auto;html=1;exitX=0;exitY=0.5;exitDx=0;exitDy=0;" parent="RMPeA_vs8Txne51qMHOB-1" source="RMPeA_vs8Txne51qMHOB-23" target="RMPeA_vs8Txne51qMHOB-25" edge="1">
          <mxGeometry relative="1" as="geometry" />
        </mxCell>
        <mxCell id="RMPeA_vs8Txne51qMHOB-23" value="" style="rounded=0;whiteSpace=wrap;html=1;fillColor=#f8cecc;strokeColor=#b85450;" parent="RMPeA_vs8Txne51qMHOB-1" vertex="1">
          <mxGeometry x="320" y="320" width="180" height="110" as="geometry" />
        </mxCell>
        <mxCell id="RMPeA_vs8Txne51qMHOB-6" style="edgeStyle=orthogonalEdgeStyle;rounded=0;orthogonalLoop=1;jettySize=auto;html=1;exitX=1;exitY=0.5;exitDx=0;exitDy=0;entryX=0;entryY=0.5;entryDx=0;entryDy=0;" parent="RMPeA_vs8Txne51qMHOB-1" source="RMPeA_vs8Txne51qMHOB-3" target="RMPeA_vs8Txne51qMHOB-4" edge="1">
          <mxGeometry relative="1" as="geometry" />
        </mxCell>
        <mxCell id="RMPeA_vs8Txne51qMHOB-3" value="标准数据库" style="rounded=0;whiteSpace=wrap;html=1;" parent="RMPeA_vs8Txne51qMHOB-1" vertex="1">
          <mxGeometry x="120" y="80" width="120" height="40" as="geometry" />
        </mxCell>
        <mxCell id="RMPeA_vs8Txne51qMHOB-4" value="生成R文件" style="rounded=0;whiteSpace=wrap;html=1;" parent="RMPeA_vs8Txne51qMHOB-1" vertex="1">
          <mxGeometry x="310" y="80" width="120" height="40" as="geometry" />
        </mxCell>
        <mxCell id="RMPeA_vs8Txne51qMHOB-13" style="edgeStyle=orthogonalEdgeStyle;rounded=0;orthogonalLoop=1;jettySize=auto;html=1;exitX=0.5;exitY=1;exitDx=0;exitDy=0;entryX=0.5;entryY=0;entryDx=0;entryDy=0;" parent="RMPeA_vs8Txne51qMHOB-1" source="RMPeA_vs8Txne51qMHOB-8" target="RMPeA_vs8Txne51qMHOB-9" edge="1">
          <mxGeometry relative="1" as="geometry" />
        </mxCell>
        <mxCell id="RMPeA_vs8Txne51qMHOB-29" style="edgeStyle=orthogonalEdgeStyle;rounded=0;orthogonalLoop=1;jettySize=auto;html=1;exitX=1;exitY=0.5;exitDx=0;exitDy=0;entryX=0;entryY=0.5;entryDx=0;entryDy=0;" parent="RMPeA_vs8Txne51qMHOB-1" source="RMPeA_vs8Txne51qMHOB-8" target="RMPeA_vs8Txne51qMHOB-28" edge="1">
          <mxGeometry relative="1" as="geometry" />
        </mxCell>
        <mxCell id="RMPeA_vs8Txne51qMHOB-45" style="edgeStyle=orthogonalEdgeStyle;rounded=0;orthogonalLoop=1;jettySize=auto;html=1;exitX=1;exitY=0.25;exitDx=0;exitDy=0;" parent="RMPeA_vs8Txne51qMHOB-1" source="RMPeA_vs8Txne51qMHOB-8" target="RMPeA_vs8Txne51qMHOB-44" edge="1">
          <mxGeometry relative="1" as="geometry" />
        </mxCell>
        <mxCell id="XzTclgpEorPxEEgzbh1u-0" value="kv" style="edgeLabel;html=1;align=center;verticalAlign=middle;resizable=0;points=[];" parent="RMPeA_vs8Txne51qMHOB-45" vertex="1" connectable="0">
          <mxGeometry x="-0.1872" y="3" relative="1" as="geometry">
            <mxPoint as="offset" />
          </mxGeometry>
        </mxCell>
        <mxCell id="RMPeA_vs8Txne51qMHOB-8" value="标准数据库" style="rounded=0;whiteSpace=wrap;html=1;" parent="RMPeA_vs8Txne51qMHOB-1" vertex="1">
          <mxGeometry x="350" y="250" width="120" height="40" as="geometry" />
        </mxCell>
        <mxCell id="RMPeA_vs8Txne51qMHOB-14" style="edgeStyle=orthogonalEdgeStyle;rounded=0;orthogonalLoop=1;jettySize=auto;html=1;exitX=0.5;exitY=1;exitDx=0;exitDy=0;" parent="RMPeA_vs8Txne51qMHOB-1" source="RMPeA_vs8Txne51qMHOB-9" target="RMPeA_vs8Txne51qMHOB-11" edge="1">
          <mxGeometry relative="1" as="geometry" />
        </mxCell>
        <mxCell id="RMPeA_vs8Txne51qMHOB-9" value="选人(条件)" style="rounded=0;whiteSpace=wrap;html=1;" parent="RMPeA_vs8Txne51qMHOB-1" vertex="1">
          <mxGeometry x="350" y="340" width="120" height="30" as="geometry" />
        </mxCell>
        <mxCell id="RMPeA_vs8Txne51qMHOB-16" style="edgeStyle=orthogonalEdgeStyle;rounded=0;orthogonalLoop=1;jettySize=auto;html=1;exitX=0.5;exitY=1;exitDx=0;exitDy=0;entryX=0.5;entryY=0;entryDx=0;entryDy=0;" parent="RMPeA_vs8Txne51qMHOB-1" source="RMPeA_vs8Txne51qMHOB-11" target="RMPeA_vs8Txne51qMHOB-15" edge="1">
          <mxGeometry relative="1" as="geometry" />
        </mxCell>
        <mxCell id="RMPeA_vs8Txne51qMHOB-11" value="选指标" style="rounded=0;whiteSpace=wrap;html=1;" parent="RMPeA_vs8Txne51qMHOB-1" vertex="1">
          <mxGeometry x="350" y="380" width="120" height="30" as="geometry" />
        </mxCell>
        <mxCell id="RMPeA_vs8Txne51qMHOB-20" style="edgeStyle=orthogonalEdgeStyle;rounded=0;orthogonalLoop=1;jettySize=auto;html=1;exitX=0.5;exitY=1;exitDx=0;exitDy=0;" parent="RMPeA_vs8Txne51qMHOB-1" source="RMPeA_vs8Txne51qMHOB-15" target="RMPeA_vs8Txne51qMHOB-18" edge="1">
          <mxGeometry relative="1" as="geometry" />
        </mxCell>
        <mxCell id="RMPeA_vs8Txne51qMHOB-31" style="edgeStyle=orthogonalEdgeStyle;rounded=0;orthogonalLoop=1;jettySize=auto;html=1;exitX=1;exitY=0.5;exitDx=0;exitDy=0;" parent="RMPeA_vs8Txne51qMHOB-1" source="RMPeA_vs8Txne51qMHOB-15" target="RMPeA_vs8Txne51qMHOB-30" edge="1">
          <mxGeometry relative="1" as="geometry" />
        </mxCell>
        <mxCell id="RMPeA_vs8Txne51qMHOB-15" value="团队库" style="rounded=0;whiteSpace=wrap;html=1;" parent="RMPeA_vs8Txne51qMHOB-1" vertex="1">
          <mxGeometry x="350" y="470" width="120" height="40" as="geometry" />
        </mxCell>
        <mxCell id="RMPeA_vs8Txne51qMHOB-17" style="edgeStyle=orthogonalEdgeStyle;rounded=0;orthogonalLoop=1;jettySize=auto;html=1;exitX=0.5;exitY=1;exitDx=0;exitDy=0;" parent="RMPeA_vs8Txne51qMHOB-1" source="RMPeA_vs8Txne51qMHOB-18" target="RMPeA_vs8Txne51qMHOB-19" edge="1">
          <mxGeometry relative="1" as="geometry" />
        </mxCell>
        <mxCell id="RMPeA_vs8Txne51qMHOB-18" value="选人(条件)" style="rounded=0;whiteSpace=wrap;html=1;" parent="RMPeA_vs8Txne51qMHOB-1" vertex="1">
          <mxGeometry x="350" y="580" width="120" height="30" as="geometry" />
        </mxCell>
        <mxCell id="RMPeA_vs8Txne51qMHOB-22" style="edgeStyle=orthogonalEdgeStyle;rounded=0;orthogonalLoop=1;jettySize=auto;html=1;exitX=0.5;exitY=1;exitDx=0;exitDy=0;" parent="RMPeA_vs8Txne51qMHOB-1" source="RMPeA_vs8Txne51qMHOB-19" target="RMPeA_vs8Txne51qMHOB-21" edge="1">
          <mxGeometry relative="1" as="geometry" />
        </mxCell>
        <mxCell id="RMPeA_vs8Txne51qMHOB-19" value="选指标" style="rounded=0;whiteSpace=wrap;html=1;" parent="RMPeA_vs8Txne51qMHOB-1" vertex="1">
          <mxGeometry x="350" y="620" width="120" height="30" as="geometry" />
        </mxCell>
        <mxCell id="RMPeA_vs8Txne51qMHOB-33" style="edgeStyle=orthogonalEdgeStyle;rounded=0;orthogonalLoop=1;jettySize=auto;html=1;exitX=1;exitY=0.5;exitDx=0;exitDy=0;entryX=0;entryY=0.5;entryDx=0;entryDy=0;" parent="RMPeA_vs8Txne51qMHOB-1" source="RMPeA_vs8Txne51qMHOB-21" target="RMPeA_vs8Txne51qMHOB-32" edge="1">
          <mxGeometry relative="1" as="geometry" />
        </mxCell>
        <mxCell id="RMPeA_vs8Txne51qMHOB-21" value="项目库" style="rounded=0;whiteSpace=wrap;html=1;" parent="RMPeA_vs8Txne51qMHOB-1" vertex="1">
          <mxGeometry x="350" y="700" width="120" height="40" as="geometry" />
        </mxCell>
        <mxCell id="RMPeA_vs8Txne51qMHOB-25" value="相同" style="rounded=0;whiteSpace=wrap;html=1;fillColor=#f8cecc;strokeColor=#b85450;" parent="RMPeA_vs8Txne51qMHOB-1" vertex="1">
          <mxGeometry x="240" y="490" width="80" height="30" as="geometry" />
        </mxCell>
        <mxCell id="Y8lfAHshxAnPTfAr3kyb-0" style="edgeStyle=orthogonalEdgeStyle;rounded=0;orthogonalLoop=1;jettySize=auto;html=1;exitX=0.5;exitY=0;exitDx=0;exitDy=0;" parent="RMPeA_vs8Txne51qMHOB-1" source="RMPeA_vs8Txne51qMHOB-28" target="RMPeA_vs8Txne51qMHOB-44" edge="1">
          <mxGeometry relative="1" as="geometry" />
        </mxCell>
        <mxCell id="RMPeA_vs8Txne51qMHOB-28" value="标准数据集治理" style="rounded=0;whiteSpace=wrap;html=1;" parent="RMPeA_vs8Txne51qMHOB-1" vertex="1">
          <mxGeometry x="596" y="350" width="104" height="40" as="geometry" />
        </mxCell>
        <mxCell id="RMPeA_vs8Txne51qMHOB-30" value="团队数据集治理" style="rounded=0;whiteSpace=wrap;html=1;" parent="RMPeA_vs8Txne51qMHOB-1" vertex="1">
          <mxGeometry x="596" y="470" width="104" height="40" as="geometry" />
        </mxCell>
        <mxCell id="RMPeA_vs8Txne51qMHOB-32" value="项目数据集治理" style="rounded=0;whiteSpace=wrap;html=1;" parent="RMPeA_vs8Txne51qMHOB-1" vertex="1">
          <mxGeometry x="600" y="630" width="100" height="40" as="geometry" />
        </mxCell>
        <mxCell id="RMPeA_vs8Txne51qMHOB-35" value="抽数" style="text;html=1;align=center;verticalAlign=middle;resizable=0;points=[];autosize=1;" parent="RMPeA_vs8Txne51qMHOB-1" vertex="1">
          <mxGeometry x="310" y="300" width="40" height="20" as="geometry" />
        </mxCell>
        <mxCell id="RMPeA_vs8Txne51qMHOB-36" value="抽数" style="text;html=1;align=center;verticalAlign=middle;resizable=0;points=[];autosize=1;" parent="RMPeA_vs8Txne51qMHOB-1" vertex="1">
          <mxGeometry x="320" y="540" width="40" height="20" as="geometry" />
        </mxCell>
        <mxCell id="RMPeA_vs8Txne51qMHOB-38" value="分析中心" style="rounded=0;whiteSpace=wrap;html=1;" parent="RMPeA_vs8Txne51qMHOB-1" vertex="1">
          <mxGeometry x="800" y="460" width="90" height="40" as="geometry" />
        </mxCell>
        <mxCell id="RMPeA_vs8Txne51qMHOB-43" style="edgeStyle=orthogonalEdgeStyle;rounded=0;orthogonalLoop=1;jettySize=auto;html=1;exitX=1;exitY=0.5;exitDx=0;exitDy=0;" parent="RMPeA_vs8Txne51qMHOB-1" source="RMPeA_vs8Txne51qMHOB-40" target="RMPeA_vs8Txne51qMHOB-42" edge="1">
          <mxGeometry relative="1" as="geometry" />
        </mxCell>
        <mxCell id="RMPeA_vs8Txne51qMHOB-40" value="生成R文件" style="rounded=0;whiteSpace=wrap;html=1;" parent="RMPeA_vs8Txne51qMHOB-1" vertex="1">
          <mxGeometry x="800" y="530" width="90" height="40" as="geometry" />
        </mxCell>
        <mxCell id="RMPeA_vs8Txne51qMHOB-42" value="Rstudio" style="rounded=0;whiteSpace=wrap;html=1;" parent="RMPeA_vs8Txne51qMHOB-1" vertex="1">
          <mxGeometry x="930" y="530" width="90" height="40" as="geometry" />
        </mxCell>
        <mxCell id="RMPeA_vs8Txne51qMHOB-44" value="生成指标库" style="rounded=0;whiteSpace=wrap;html=1;" parent="RMPeA_vs8Txne51qMHOB-1" vertex="1">
          <mxGeometry x="588" y="240" width="120" height="40" as="geometry" />
        </mxCell>
        <mxCell id="B7fjHNApR-S9G4e8qijR-1" style="edgeStyle=orthogonalEdgeStyle;rounded=0;orthogonalLoop=1;jettySize=auto;html=1;exitX=1;exitY=0.5;exitDx=0;exitDy=0;" parent="RMPeA_vs8Txne51qMHOB-1" source="B7fjHNApR-S9G4e8qijR-0" target="RMPeA_vs8Txne51qMHOB-8" edge="1">
          <mxGeometry relative="1" as="geometry" />
        </mxCell>
        <mxCell id="B7fjHNApR-S9G4e8qijR-0" value="原始数据ETL" style="rounded=0;whiteSpace=wrap;html=1;fillColor=#fff2cc;strokeColor=#d6b656;" parent="RMPeA_vs8Txne51qMHOB-1" vertex="1">
          <mxGeometry x="170" y="250" width="90" height="40" as="geometry" />
        </mxCell>
      </root>
    </mxGraphModel>
  </diagram>
  <diagram id="Wjt36XJoavBUSv_5W7Sx" name="流程梳理改进版">
    <mxGraphModel dx="865" dy="483" grid="1" gridSize="10" guides="1" tooltips="1" connect="1" arrows="1" fold="1" page="1" pageScale="1" pageWidth="827" pageHeight="1169" math="0" shadow="0">
      <root>
        <mxCell id="vwO85dcbsxduG2n-KNHh-0" />
        <mxCell id="vwO85dcbsxduG2n-KNHh-1" parent="vwO85dcbsxduG2n-KNHh-0" />
        <mxCell id="4-V9bE8NFD5y1Paw4M-8-40" value="" style="rounded=0;whiteSpace=wrap;html=1;dashed=1;strokeWidth=4;fillColor=#dae8fc;strokeColor=#6c8ebf;" parent="vwO85dcbsxduG2n-KNHh-1" vertex="1">
          <mxGeometry x="900" y="180" width="310" height="460" as="geometry" />
        </mxCell>
        <mxCell id="4-V9bE8NFD5y1Paw4M-8-35" value="" style="rounded=0;whiteSpace=wrap;html=1;dashed=1;strokeWidth=3;fillColor=#f5f5f5;strokeColor=#666666;fontColor=#333333;" parent="vwO85dcbsxduG2n-KNHh-1" vertex="1">
          <mxGeometry x="230" y="179" width="630" height="461" as="geometry" />
        </mxCell>
        <mxCell id="4-V9bE8NFD5y1Paw4M-8-34" value="" style="rounded=0;whiteSpace=wrap;html=1;dashed=1;fillColor=#fff2cc;strokeColor=#d6b656;strokeWidth=4;" parent="vwO85dcbsxduG2n-KNHh-1" vertex="1">
          <mxGeometry x="30" y="180" width="150" height="460" as="geometry" />
        </mxCell>
        <mxCell id="4-V9bE8NFD5y1Paw4M-8-30" style="edgeStyle=orthogonalEdgeStyle;rounded=0;orthogonalLoop=1;jettySize=auto;html=1;exitX=1;exitY=0.5;exitDx=0;exitDy=0;entryX=0;entryY=0.5;entryDx=0;entryDy=0;" parent="vwO85dcbsxduG2n-KNHh-1" source="4-V9bE8NFD5y1Paw4M-8-29" target="4-V9bE8NFD5y1Paw4M-8-18" edge="1">
          <mxGeometry relative="1" as="geometry" />
        </mxCell>
        <mxCell id="4-V9bE8NFD5y1Paw4M-8-29" value="" style="rounded=0;whiteSpace=wrap;html=1;dashed=1;fillColor=#dae8fc;strokeColor=#6c8ebf;" parent="vwO85dcbsxduG2n-KNHh-1" vertex="1">
          <mxGeometry x="620" y="322" width="220" height="127" as="geometry" />
        </mxCell>
        <mxCell id="4-V9bE8NFD5y1Paw4M-8-11" value="复制表" style="edgeStyle=orthogonalEdgeStyle;rounded=0;orthogonalLoop=1;jettySize=auto;html=1;exitX=1;exitY=0.5;exitDx=0;exitDy=0;" parent="vwO85dcbsxduG2n-KNHh-1" source="4-V9bE8NFD5y1Paw4M-8-0" target="4-V9bE8NFD5y1Paw4M-8-1" edge="1">
          <mxGeometry relative="1" as="geometry" />
        </mxCell>
        <mxCell id="4-V9bE8NFD5y1Paw4M-8-0" value="原始库&lt;br&gt;(数据湖)" style="rounded=0;whiteSpace=wrap;html=1;" parent="vwO85dcbsxduG2n-KNHh-1" vertex="1">
          <mxGeometry x="60" y="366.5" width="80" height="50" as="geometry" />
        </mxCell>
        <mxCell id="4-V9bE8NFD5y1Paw4M-8-13" style="edgeStyle=orthogonalEdgeStyle;rounded=0;orthogonalLoop=1;jettySize=auto;html=1;exitX=1;exitY=0.5;exitDx=0;exitDy=0;" parent="vwO85dcbsxduG2n-KNHh-1" source="4-V9bE8NFD5y1Paw4M-8-1" target="4-V9bE8NFD5y1Paw4M-8-12" edge="1">
          <mxGeometry relative="1" as="geometry" />
        </mxCell>
        <mxCell id="4-V9bE8NFD5y1Paw4M-8-16" style="edgeStyle=orthogonalEdgeStyle;rounded=0;orthogonalLoop=1;jettySize=auto;html=1;exitX=0;exitY=0.75;exitDx=0;exitDy=0;entryX=1;entryY=0.5;entryDx=0;entryDy=0;" parent="vwO85dcbsxduG2n-KNHh-1" source="4-V9bE8NFD5y1Paw4M-8-1" target="4-V9bE8NFD5y1Paw4M-8-15" edge="1">
          <mxGeometry relative="1" as="geometry">
            <Array as="points">
              <mxPoint x="280" y="477" />
              <mxPoint x="215" y="477" />
            </Array>
          </mxGeometry>
        </mxCell>
        <mxCell id="IxStlX5huCahZzVJ8Jvg-2" value="&lt;font style=&quot;font-size: 13px;&quot;&gt;审核&lt;/font&gt;" style="edgeLabel;html=1;align=center;verticalAlign=middle;resizable=0;points=[];fontSize=13;" vertex="1" connectable="0" parent="4-V9bE8NFD5y1Paw4M-8-16">
          <mxGeometry x="0.4136" y="4" relative="1" as="geometry">
            <mxPoint as="offset" />
          </mxGeometry>
        </mxCell>
        <mxCell id="4-V9bE8NFD5y1Paw4M-8-22" style="edgeStyle=orthogonalEdgeStyle;rounded=0;orthogonalLoop=1;jettySize=auto;html=1;exitX=1;exitY=0.5;exitDx=0;exitDy=0;" parent="vwO85dcbsxduG2n-KNHh-1" source="4-V9bE8NFD5y1Paw4M-8-1" target="4-V9bE8NFD5y1Paw4M-8-21" edge="1">
          <mxGeometry relative="1" as="geometry">
            <Array as="points">
              <mxPoint x="540" y="380" />
              <mxPoint x="590" y="380" />
              <mxPoint x="590" y="409" />
            </Array>
          </mxGeometry>
        </mxCell>
        <mxCell id="4-V9bE8NFD5y1Paw4M-8-1" value="数据整理优化工作台" style="rounded=0;whiteSpace=wrap;html=1;dashed=1;" parent="vwO85dcbsxduG2n-KNHh-1" vertex="1">
          <mxGeometry x="280" y="284" width="260" height="215" as="geometry" />
        </mxCell>
        <mxCell id="4-V9bE8NFD5y1Paw4M-8-7" style="edgeStyle=orthogonalEdgeStyle;rounded=0;orthogonalLoop=1;jettySize=auto;html=1;exitX=0.5;exitY=0;exitDx=0;exitDy=0;" parent="vwO85dcbsxduG2n-KNHh-1" source="4-V9bE8NFD5y1Paw4M-8-3" target="4-V9bE8NFD5y1Paw4M-8-1" edge="1">
          <mxGeometry relative="1" as="geometry" />
        </mxCell>
        <mxCell id="4-V9bE8NFD5y1Paw4M-8-3" value="虚拟概念" style="rounded=0;whiteSpace=wrap;html=1;dashed=1;" parent="vwO85dcbsxduG2n-KNHh-1" vertex="1">
          <mxGeometry x="260" y="560" width="60" height="40" as="geometry" />
        </mxCell>
        <mxCell id="4-V9bE8NFD5y1Paw4M-8-8" style="edgeStyle=orthogonalEdgeStyle;rounded=0;orthogonalLoop=1;jettySize=auto;html=1;exitX=0.5;exitY=0;exitDx=0;exitDy=0;" parent="vwO85dcbsxduG2n-KNHh-1" source="4-V9bE8NFD5y1Paw4M-8-4" target="4-V9bE8NFD5y1Paw4M-8-1" edge="1">
          <mxGeometry relative="1" as="geometry" />
        </mxCell>
        <mxCell id="4-V9bE8NFD5y1Paw4M-8-4" value="作业库" style="rounded=0;whiteSpace=wrap;html=1;dashed=1;" parent="vwO85dcbsxduG2n-KNHh-1" vertex="1">
          <mxGeometry x="340" y="560" width="60" height="40" as="geometry" />
        </mxCell>
        <mxCell id="4-V9bE8NFD5y1Paw4M-8-9" style="edgeStyle=orthogonalEdgeStyle;rounded=0;orthogonalLoop=1;jettySize=auto;html=1;exitX=0.5;exitY=0;exitDx=0;exitDy=0;" parent="vwO85dcbsxduG2n-KNHh-1" source="4-V9bE8NFD5y1Paw4M-8-5" target="4-V9bE8NFD5y1Paw4M-8-1" edge="1">
          <mxGeometry relative="1" as="geometry" />
        </mxCell>
        <mxCell id="4-V9bE8NFD5y1Paw4M-8-5" value="本地存储" style="rounded=0;whiteSpace=wrap;html=1;dashed=1;" parent="vwO85dcbsxduG2n-KNHh-1" vertex="1">
          <mxGeometry x="420" y="560" width="60" height="40" as="geometry" />
        </mxCell>
        <mxCell id="4-V9bE8NFD5y1Paw4M-8-10" style="edgeStyle=orthogonalEdgeStyle;rounded=0;orthogonalLoop=1;jettySize=auto;html=1;exitX=0.5;exitY=0;exitDx=0;exitDy=0;" parent="vwO85dcbsxduG2n-KNHh-1" source="4-V9bE8NFD5y1Paw4M-8-6" target="4-V9bE8NFD5y1Paw4M-8-1" edge="1">
          <mxGeometry relative="1" as="geometry" />
        </mxCell>
        <mxCell id="4-V9bE8NFD5y1Paw4M-8-6" value="过程表" style="rounded=0;whiteSpace=wrap;html=1;dashed=1;" parent="vwO85dcbsxduG2n-KNHh-1" vertex="1">
          <mxGeometry x="500" y="560" width="60" height="41" as="geometry" />
        </mxCell>
        <mxCell id="4-V9bE8NFD5y1Paw4M-8-24" style="edgeStyle=orthogonalEdgeStyle;rounded=0;orthogonalLoop=1;jettySize=auto;html=1;exitX=0.5;exitY=0;exitDx=0;exitDy=0;" parent="vwO85dcbsxduG2n-KNHh-1" source="4-V9bE8NFD5y1Paw4M-8-12" target="4-V9bE8NFD5y1Paw4M-8-23" edge="1">
          <mxGeometry relative="1" as="geometry" />
        </mxCell>
        <mxCell id="4-V9bE8NFD5y1Paw4M-8-25" value="任意组合?" style="edgeStyle=orthogonalEdgeStyle;rounded=0;orthogonalLoop=1;jettySize=auto;html=1;exitX=1;exitY=0.5;exitDx=0;exitDy=0;entryX=1;entryY=0.5;entryDx=0;entryDy=0;" parent="vwO85dcbsxduG2n-KNHh-1" source="4-V9bE8NFD5y1Paw4M-8-12" target="4-V9bE8NFD5y1Paw4M-8-21" edge="1">
          <mxGeometry relative="1" as="geometry" />
        </mxCell>
        <mxCell id="4-V9bE8NFD5y1Paw4M-8-12" value="公开指标库(指标维度视角)" style="rounded=0;whiteSpace=wrap;html=1;" parent="vwO85dcbsxduG2n-KNHh-1" vertex="1">
          <mxGeometry x="640" y="331.5" width="150" height="40" as="geometry" />
        </mxCell>
        <mxCell id="4-V9bE8NFD5y1Paw4M-8-14" value="团队库" style="rounded=0;whiteSpace=wrap;html=1;dashed=1;" parent="vwO85dcbsxduG2n-KNHh-1" vertex="1">
          <mxGeometry x="280" y="249" width="60" height="35" as="geometry" />
        </mxCell>
        <mxCell id="4-V9bE8NFD5y1Paw4M-8-17" style="edgeStyle=orthogonalEdgeStyle;rounded=0;orthogonalLoop=1;jettySize=auto;html=1;exitX=0.5;exitY=0;exitDx=0;exitDy=0;" parent="vwO85dcbsxduG2n-KNHh-1" source="4-V9bE8NFD5y1Paw4M-8-15" target="4-V9bE8NFD5y1Paw4M-8-0" edge="1">
          <mxGeometry relative="1" as="geometry" />
        </mxCell>
        <mxCell id="4-V9bE8NFD5y1Paw4M-8-15" value="原始&lt;b&gt;数据版本&lt;/b&gt;库" style="rounded=0;whiteSpace=wrap;html=1;dashed=1;" parent="vwO85dcbsxduG2n-KNHh-1" vertex="1">
          <mxGeometry x="50" y="459" width="100" height="35" as="geometry" />
        </mxCell>
        <mxCell id="4-V9bE8NFD5y1Paw4M-8-42" style="edgeStyle=orthogonalEdgeStyle;rounded=0;orthogonalLoop=1;jettySize=auto;html=1;exitX=0.5;exitY=1;exitDx=0;exitDy=0;" parent="vwO85dcbsxduG2n-KNHh-1" source="4-V9bE8NFD5y1Paw4M-8-18" target="4-V9bE8NFD5y1Paw4M-8-41" edge="1">
          <mxGeometry relative="1" as="geometry" />
        </mxCell>
        <mxCell id="4-V9bE8NFD5y1Paw4M-8-18" value="数据分析工作台" style="rounded=0;whiteSpace=wrap;html=1;dashed=1;" parent="vwO85dcbsxduG2n-KNHh-1" vertex="1">
          <mxGeometry x="950" y="270" width="230" height="229" as="geometry" />
        </mxCell>
        <mxCell id="4-V9bE8NFD5y1Paw4M-8-20" value="治理工具集" style="rounded=0;whiteSpace=wrap;html=1;dashed=1;" parent="vwO85dcbsxduG2n-KNHh-1" vertex="1">
          <mxGeometry x="290" y="341.5" width="90" height="30" as="geometry" />
        </mxCell>
        <mxCell id="4-V9bE8NFD5y1Paw4M-8-37" style="edgeStyle=orthogonalEdgeStyle;rounded=0;orthogonalLoop=1;jettySize=auto;html=1;exitX=0.5;exitY=1;exitDx=0;exitDy=0;entryX=0.5;entryY=0;entryDx=0;entryDy=0;" parent="vwO85dcbsxduG2n-KNHh-1" source="4-V9bE8NFD5y1Paw4M-8-21" target="4-V9bE8NFD5y1Paw4M-8-36" edge="1">
          <mxGeometry relative="1" as="geometry" />
        </mxCell>
        <mxCell id="4-V9bE8NFD5y1Paw4M-8-21" value="项目库(业务视角)" style="rounded=0;whiteSpace=wrap;html=1;" parent="vwO85dcbsxduG2n-KNHh-1" vertex="1">
          <mxGeometry x="640" y="389" width="150" height="40" as="geometry" />
        </mxCell>
        <mxCell id="4-V9bE8NFD5y1Paw4M-8-27" style="edgeStyle=orthogonalEdgeStyle;rounded=0;orthogonalLoop=1;jettySize=auto;html=1;exitX=1;exitY=0.5;exitDx=0;exitDy=0;entryX=0;entryY=0.5;entryDx=0;entryDy=0;" parent="vwO85dcbsxduG2n-KNHh-1" source="4-V9bE8NFD5y1Paw4M-8-23" target="4-V9bE8NFD5y1Paw4M-8-26" edge="1">
          <mxGeometry relative="1" as="geometry" />
        </mxCell>
        <mxCell id="4-V9bE8NFD5y1Paw4M-8-23" value="&lt;span&gt;以个体为单位的指标数据存储模型MongoDB&lt;/span&gt;" style="rounded=0;whiteSpace=wrap;html=1;dashed=1;fillColor=#e1d5e7;strokeColor=#9673a6;" parent="vwO85dcbsxduG2n-KNHh-1" vertex="1">
          <mxGeometry x="640" y="209" width="150" height="50" as="geometry" />
        </mxCell>
        <mxCell id="4-V9bE8NFD5y1Paw4M-8-38" style="edgeStyle=orthogonalEdgeStyle;rounded=0;orthogonalLoop=1;jettySize=auto;html=1;exitX=1;exitY=0.25;exitDx=0;exitDy=0;" parent="vwO85dcbsxduG2n-KNHh-1" source="4-V9bE8NFD5y1Paw4M-8-26" target="4-V9bE8NFD5y1Paw4M-8-18" edge="1">
          <mxGeometry relative="1" as="geometry" />
        </mxCell>
        <mxCell id="4-V9bE8NFD5y1Paw4M-8-26" value="队列创建器" style="rounded=0;whiteSpace=wrap;html=1;fillColor=#ffe6cc;strokeColor=#d79b00;" parent="vwO85dcbsxduG2n-KNHh-1" vertex="1">
          <mxGeometry x="930" y="217.5" width="90" height="35" as="geometry" />
        </mxCell>
        <mxCell id="4-V9bE8NFD5y1Paw4M-8-33" style="edgeStyle=orthogonalEdgeStyle;rounded=0;orthogonalLoop=1;jettySize=auto;html=1;exitX=0.5;exitY=1;exitDx=0;exitDy=0;" parent="vwO85dcbsxduG2n-KNHh-1" source="4-V9bE8NFD5y1Paw4M-8-32" target="4-V9bE8NFD5y1Paw4M-8-0" edge="1">
          <mxGeometry relative="1" as="geometry" />
        </mxCell>
        <mxCell id="4-V9bE8NFD5y1Paw4M-8-32" value="ETL等数据接入" style="rounded=0;whiteSpace=wrap;html=1;" parent="vwO85dcbsxduG2n-KNHh-1" vertex="1">
          <mxGeometry x="40" y="210" width="120" height="101" as="geometry" />
        </mxCell>
        <mxCell id="mgvj-9vJnkMT4UIeafqT-0" style="edgeStyle=orthogonalEdgeStyle;rounded=0;orthogonalLoop=1;jettySize=auto;html=1;exitX=0.5;exitY=1;exitDx=0;exitDy=0;fontSize=13;" edge="1" parent="vwO85dcbsxduG2n-KNHh-1" source="4-V9bE8NFD5y1Paw4M-8-36" target="tqVSn2UWQGp_nb58zKsH-0">
          <mxGeometry relative="1" as="geometry" />
        </mxCell>
        <mxCell id="4-V9bE8NFD5y1Paw4M-8-36" value="&lt;span&gt;科研库(下载R)&lt;/span&gt;" style="rounded=0;whiteSpace=wrap;html=1;dashed=1;strokeWidth=3;fillColor=#e1d5e7;strokeColor=#9673a6;" parent="vwO85dcbsxduG2n-KNHh-1" vertex="1">
          <mxGeometry x="655" y="545" width="120" height="40" as="geometry" />
        </mxCell>
        <mxCell id="4-V9bE8NFD5y1Paw4M-8-41" value="成果产出及转化" style="rounded=0;whiteSpace=wrap;html=1;fillColor=#ffe6cc;strokeColor=#d79b00;" parent="vwO85dcbsxduG2n-KNHh-1" vertex="1">
          <mxGeometry x="1020" y="545" width="90" height="35" as="geometry" />
        </mxCell>
        <mxCell id="4-V9bE8NFD5y1Paw4M-8-43" value="数据融合" style="text;html=1;align=center;verticalAlign=middle;resizable=0;points=[];autosize=1;" parent="vwO85dcbsxduG2n-KNHh-1" vertex="1">
          <mxGeometry x="30" y="160" width="60" height="20" as="geometry" />
        </mxCell>
        <mxCell id="4-V9bE8NFD5y1Paw4M-8-44" value="NLP" style="rounded=0;whiteSpace=wrap;html=1;dashed=1;" parent="vwO85dcbsxduG2n-KNHh-1" vertex="1">
          <mxGeometry x="300" y="410" width="90" height="30" as="geometry" />
        </mxCell>
        <mxCell id="4-V9bE8NFD5y1Paw4M-8-52" value="算法集合" style="rounded=0;whiteSpace=wrap;html=1;fillColor=#ffe6cc;strokeColor=#d79b00;" parent="vwO85dcbsxduG2n-KNHh-1" vertex="1">
          <mxGeometry x="960" y="296.5" width="90" height="35" as="geometry" />
        </mxCell>
        <mxCell id="4-V9bE8NFD5y1Paw4M-8-53" value="流程集合" style="rounded=0;whiteSpace=wrap;html=1;fillColor=#ffe6cc;strokeColor=#d79b00;" parent="vwO85dcbsxduG2n-KNHh-1" vertex="1">
          <mxGeometry x="1080" y="296.5" width="90" height="35" as="geometry" />
        </mxCell>
        <mxCell id="4-V9bE8NFD5y1Paw4M-8-54" value="流程集合" style="rounded=0;whiteSpace=wrap;html=1;fillColor=#ffe6cc;strokeColor=#d79b00;" parent="vwO85dcbsxduG2n-KNHh-1" vertex="1">
          <mxGeometry x="960" y="424" width="90" height="35" as="geometry" />
        </mxCell>
        <mxCell id="4-V9bE8NFD5y1Paw4M-8-55" value="流程集合" style="rounded=0;whiteSpace=wrap;html=1;fillColor=#ffe6cc;strokeColor=#d79b00;" parent="vwO85dcbsxduG2n-KNHh-1" vertex="1">
          <mxGeometry x="1080" y="424" width="90" height="35" as="geometry" />
        </mxCell>
        <mxCell id="Lc2cOP0lgvdxBEm3lBqB-0" value="ETL" style="rounded=0;whiteSpace=wrap;html=1;dashed=1;" parent="vwO85dcbsxduG2n-KNHh-1" vertex="1">
          <mxGeometry x="440" y="319" width="90" height="30" as="geometry" />
        </mxCell>
        <mxCell id="Lc2cOP0lgvdxBEm3lBqB-1" value="指标创建:拆" style="rounded=0;whiteSpace=wrap;html=1;dashed=1;" parent="vwO85dcbsxduG2n-KNHh-1" vertex="1">
          <mxGeometry x="350" y="450" width="90" height="30" as="geometry" />
        </mxCell>
        <mxCell id="Lc2cOP0lgvdxBEm3lBqB-2" value="基本信息" style="rounded=0;whiteSpace=wrap;html=1;dashed=1;" parent="vwO85dcbsxduG2n-KNHh-1" vertex="1">
          <mxGeometry x="450" y="420" width="90" height="30" as="geometry" />
        </mxCell>
        <mxCell id="Lc2cOP0lgvdxBEm3lBqB-3" value="数据标化" style="rounded=0;whiteSpace=wrap;html=1;dashed=1;" parent="vwO85dcbsxduG2n-KNHh-1" vertex="1">
          <mxGeometry x="330" y="292" width="90" height="30" as="geometry" />
        </mxCell>
        <mxCell id="tqVSn2UWQGp_nb58zKsH-0" value="目录源" style="rounded=0;whiteSpace=wrap;html=1;dashed=1;strokeWidth=4;fontSize=23;" vertex="1" parent="vwO85dcbsxduG2n-KNHh-1">
          <mxGeometry x="60" y="650" width="95" height="40" as="geometry" />
        </mxCell>
        <mxCell id="IxStlX5huCahZzVJ8Jvg-0" value="治理" style="rounded=0;whiteSpace=wrap;html=1;dashed=1;strokeWidth=4;fontSize=23;" vertex="1" parent="vwO85dcbsxduG2n-KNHh-1">
          <mxGeometry x="480" y="650" width="80" height="40" as="geometry" />
        </mxCell>
        <mxCell id="IxStlX5huCahZzVJ8Jvg-1" value="分析" style="rounded=0;whiteSpace=wrap;html=1;dashed=1;strokeWidth=4;fontSize=23;" vertex="1" parent="vwO85dcbsxduG2n-KNHh-1">
          <mxGeometry x="1027.5" y="650" width="75" height="40" as="geometry" />
        </mxCell>
      </root>
    </mxGraphModel>
  </diagram>
</mxfile>
